<svg width="16" height="16" viewBox="0 0 16 16" fill="none" xmlns="http://www.w3.org/2000/svg">
<path fill-rule="evenodd" clip-rule="evenodd" d="M6.66659 2.66634V9.33301H13.3333V2.66634H6.66659ZM5.99992 1.33301C5.63173 1.33301 5.33325 1.63149 5.33325 1.99967V9.99967C5.33325 10.3679 5.63173 10.6663 5.99992 10.6663H13.9999C14.3681 10.6663 14.6666 10.3679 14.6666 9.99967V1.99967C14.6666 1.63149 14.3681 1.33301 13.9999 1.33301H5.99992Z" fill="#18181B"/>
<path fill-rule="evenodd" clip-rule="evenodd" d="M3.99992 5.33301H1.99992C1.63173 5.33301 1.33325 5.63149 1.33325 5.99967V13.9997C1.33325 14.3679 1.63173 14.6663 1.99992 14.6663H9.99992C10.3681 14.6663 10.6666 14.3679 10.6666 13.9997V11.9997H9.33325V13.333H2.66659V6.66634H3.99992V5.33301Z" fill="#18181B"/>
</svg>
