<svg width="15" height="12" viewBox="0 0 15 12" fill="none" xmlns="http://www.w3.org/2000/svg">
<path d="M14.7789 2.08232C14.2699 2.30787 13.723 2.46028 13.1482 2.52916C13.7413 2.17424 14.1851 1.61564 14.3967 0.957582C13.8394 1.2886 13.2295 1.52159 12.5934 1.64644C12.1657 1.18976 11.5992 0.887065 10.9818 0.78535C10.3644 0.683635 9.73074 0.788592 9.17913 1.08393C8.62751 1.37926 8.18884 1.84845 7.9312 2.41864C7.67356 2.98884 7.61138 3.62814 7.75432 4.2373C6.62512 4.1806 5.52047 3.88711 4.51204 3.37586C3.50362 2.86461 2.61396 2.14704 1.90081 1.2697C1.65696 1.69034 1.51675 2.17803 1.51675 2.69742C1.51648 3.16499 1.63163 3.6254 1.85197 4.03779C2.07231 4.45019 2.39104 4.80183 2.77987 5.0615C2.32893 5.04715 1.88793 4.9253 1.49359 4.70609V4.74267C1.49354 5.39846 1.72038 6.03406 2.13562 6.54164C2.55086 7.04921 3.12892 7.39749 3.77171 7.52738C3.35339 7.6406 2.9148 7.65727 2.48909 7.57615C2.67045 8.14042 3.02372 8.63385 3.49944 8.98736C3.97517 9.34088 4.54953 9.53678 5.14212 9.54764C4.13616 10.3373 2.8938 10.7657 1.6149 10.7638C1.38836 10.7639 1.16201 10.7507 0.937012 10.7242C2.23517 11.5589 3.74632 12.0018 5.28965 12.0001C10.514 12.0001 13.3701 7.67308 13.3701 3.9203C13.3701 3.79838 13.367 3.67524 13.3615 3.55331C13.9171 3.15156 14.3966 2.65407 14.7777 2.08415L14.7789 2.08232Z" fill="#9D5FE9"/>
</svg>
